HIERARCHY
ROOT root
{
	OFFSET 0.000000 0.000000 0.000000
	CHANNELS 6 Xposition Yposition Zposition Zrotation Yrotation Xrotation
	JOINT lhip
	{
		OFFSET 0.058581 -0.082280 -0.017664
		CHANNELS 3 Zrotation Yrotation Xrotation
		JOINT lknee
		{
			OFFSET 0.043451 -0.386469 0.008037
			CHANNELS 3 Zrotation Yrotation Xrotation
			JOINT lankle
			{
				OFFSET -0.014790 -0.426874 -0.037428
				CHANNELS 3 Zrotation Yrotation Xrotation
				JOINT ltoe
				{
					OFFSET 0.041054 -0.060286 0.122042
					CHANNELS 3 Zrotation Yrotation Xrotation
					End Site
					{
						OFFSET 0.000000 0.000000 0.000000
					}
				}
			}
		}
	}
	JOINT rhip
	{
		OFFSET -0.060310 -0.090513 -0.013543
		CHANNELS 3 Zrotation Yrotation Xrotation
		JOINT rknee
		{
			OFFSET -0.043257 -0.383688 -0.004843
			CHANNELS 3 Zrotation Yrotation Xrotation
			JOINT rankle
			{
				OFFSET 0.019056 -0.420046 -0.034562
				CHANNELS 3 Zrotation Yrotation Xrotation
				JOINT rtoe
				{
					OFFSET -0.034840 -0.062106 0.130323
					CHANNELS 3 Zrotation Yrotation Xrotation
					End Site
					{
						OFFSET 0.000000 0.000000 0.000000
					}
				}
			}
		}
	}
	JOINT lowerback
	{
		OFFSET 0.004439 0.124404 -0.038385
		CHANNELS 3 Zrotation Yrotation Xrotation
		JOINT upperback
		{
			OFFSET 0.004488 0.137956 0.026820
			CHANNELS 3 Zrotation Yrotation Xrotation
			JOINT chest
			{
				OFFSET -0.002265 0.056032 0.002855
				CHANNELS 3 Zrotation Yrotation Xrotation
				JOINT lowerneck
				{
					OFFSET -0.013390 0.211636 -0.033468
					CHANNELS 3 Zrotation Yrotation Xrotation
					JOINT upperneck
					{
						OFFSET 0.010113 0.088937 0.050410
						CHANNELS 3 Zrotation Yrotation Xrotation
						End Site
						{
							OFFSET 0.000000 0.000000 0.000000
						}
					}
				}
				JOINT lclavicle
				{
					OFFSET 0.071702 0.114000 -0.018898
					CHANNELS 3 Zrotation Yrotation Xrotation
					JOINT lshoulder
					{
						OFFSET 0.122921 0.045205 -0.019046
						CHANNELS 3 Zrotation Yrotation Xrotation
						JOINT lelbow
						{
							OFFSET 0.255332 -0.015649 -0.022946
							CHANNELS 3 Zrotation Yrotation Xrotation
							JOINT lwrist
							{
								OFFSET 0.265709 0.012698 -0.007375
								CHANNELS 3 Zrotation Yrotation Xrotation
								End Site
								{
									OFFSET 0.000000 0.000000 0.000000
								}
							}
						}
					}
				}
				JOINT rclavicle
				{
					OFFSET -0.082954 0.112472 -0.023707
					CHANNELS 3 Zrotation Yrotation Xrotation
					JOINT rshoulder
					{
						OFFSET -0.113228 0.046853 -0.008472
						CHANNELS 3 Zrotation Yrotation Xrotation
						JOINT relbow
						{
							OFFSET -0.260127 -0.014369 -0.031269
							CHANNELS 3 Zrotation Yrotation Xrotation
							JOINT rwrist
							{
								OFFSET -0.269108 0.006794 -0.006027
								CHANNELS 3 Zrotation Yrotation Xrotation
								End Site
								{
									OFFSET 0.000000 0.000000 0.000000
								}
							}
						}
					}
				}
			}
		}
	}
}
MOTION
Frames: 13
Frame Time: 0.033333
1.712576 0.731355 0.990425 -85.592328 1.923718 83.901839 1.985141 2.175128 9.540183 -2.659440 -14.621775 1.828279 5.421790 7.021077 -17.175298 0.000000 -0.000000 0.000000 0.438966 -4.466618 7.055939 1.714611 -1.468820 7.331180 3.783148 -2.303428 -16.445606 0.000000 -0.000000 0.000000 -2.513086 2.717177 9.004535 1.264313 -1.496235 1.817889 1.898317 -1.660904 4.042110 2.711793 1.930279 10.166170 4.401355 -1.290409 2.121079 -24.750080 6.788834 3.187608 -63.044703 -6.358842 5.967713 12.780788 -29.866971 2.053482 -2.347035 0.370296 -11.553595 24.334602 -3.312011 0.255507 63.558604 2.890412 8.928184 -15.484967 24.187565 -4.974923 7.830496 -1.369984 -9.088420 
1.714890 0.732120 0.990043 -84.936463 3.212672 85.823483 3.354057 0.681608 6.750971 -3.034855 -13.660179 2.740173 5.326908 6.695734 -17.071760 0.000000 -0.000000 0.000000 1.927136 -3.587332 5.328023 2.590828 -2.154647 6.128735 2.722854 -3.367536 -15.506693 0.000000 -0.000000 0.000000 -1.233941 1.293152 7.427630 1.545500 -2.293339 1.802360 1.540496 -0.818632 3.504282 2.163375 0.141703 9.077944 2.922281 -2.525233 0.791787 -25.014304 7.231553 2.847513 -63.194831 -6.495316 6.513160 12.775484 -31.731911 2.515622 -4.977096 -0.304543 -13.223791 24.396236 -3.546483 0.169205 63.754578 2.881431 9.496913 -15.933579 24.340506 -4.218775 8.225387 -1.398050 -9.701522 
1.716266 0.733382 0.989526 -85.186438 3.417979 86.275210 3.641065 0.282012 6.352443 -3.088474 -13.456468 2.739292 5.334407 6.848267 -17.035670 0.000000 -0.000000 0.000000 1.647033 -3.409571 5.667598 3.317059 -0.670290 5.333931 3.271984 -3.645115 -11.371319 0.000000 -0.000000 0.000000 -0.753365 1.596453 6.782346 1.767252 -2.230975 1.860482 1.537825 -1.417444 3.933934 1.914319 -1.653161 6.906574 1.308193 -3.701824 -0.076933 -25.870843 6.845446 2.242408 -62.980444 -6.837670 7.296798 11.797426 -32.253646 4.557325 -4.135829 -0.441112 -11.162817 23.772098 -3.598134 -0.376455 63.994154 2.876328 9.699499 -15.509795 24.451316 -4.604714 7.306244 -1.310362 -9.544143 
1.717340 0.733860 0.989245 -85.584534 3.288532 86.544217 3.404246 0.269014 6.109987 -2.918322 -13.186763 2.733247 5.396002 6.862993 -17.028642 0.000000 -0.000000 0.000000 1.398841 -3.208080 5.608578 3.481685 -0.298286 4.844746 3.640242 -3.894528 -10.986881 0.000000 -0.000000 0.000000 -0.752736 1.530705 6.493638 1.904247 -2.326775 1.901656 1.503643 -1.687671 4.407347 2.022633 -3.222002 3.877136 -0.821414 -5.374156 -0.935187 -26.475467 6.860708 1.190189 -62.599715 -6.976985 8.049335 11.127319 -33.008871 5.663214 -3.399634 -0.998759 -10.405292 24.026236 -3.392187 -1.187817 63.651070 3.002826 10.269877 -15.509880 24.410775 -5.005697 6.316651 -1.217144 -8.769064 
1.718227 0.734134 0.989124 -85.830802 3.235565 86.714359 3.326693 0.265580 5.974259 -2.887533 -13.177413 2.648251 5.305134 6.874867 -17.059654 0.000000 -0.000000 0.000000 1.336330 -3.010761 5.363362 3.538818 -0.179298 4.879928 3.744758 -3.964895 -10.903512 0.000000 -0.000000 0.000000 -0.845147 1.503714 6.443328 2.004643 -2.399263 1.881109 1.635138 -1.732644 4.506480 2.127082 -3.880129 2.498208 -1.769402 -6.013468 -1.660482 -26.691550 6.756812 0.772513 -62.506835 -6.979105 8.255315 10.843692 -33.234481 5.911091 -3.494656 -1.050859 -10.396663 24.071213 -3.203095 -1.522219 63.415483 3.007982 10.452970 -15.535725 24.336430 -5.209243 6.116693 -1.225765 -8.437549 
1.718850 0.734729 0.988756 -86.169457 3.298402 86.831652 3.401060 0.372627 5.845274 -2.884653 -13.094241 2.696981 5.289722 6.989519 -17.051250 0.000000 -0.000000 0.000000 1.439768 -2.987749 5.077457 3.497569 -0.014850 5.084177 3.725319 -3.866613 -11.029505 0.000000 -0.000000 0.000000 -0.908096 1.437447 6.392765 2.097245 -2.473204 1.920925 1.747880 -1.759654 4.409710 2.045245 -3.802116 2.049579 -1.799145 -5.999071 -2.062861 -26.660165 6.508828 0.904597 -62.599066 -6.892248 8.283844 10.848700 -33.320988 5.871308 -3.359072 -1.064048 -10.531543 24.120027 -3.013684 -1.494978 63.182170 3.106556 10.439230 -15.525291 24.593064 -5.242047 6.020882 -1.225800 -8.423223 
1.718755 0.735030 0.988810 -86.435919 3.368804 86.600580 3.477486 0.436717 6.206145 -2.856196 -12.945789 2.593775 5.309883 7.009676 -17.105570 0.000000 -0.000000 0.000000 1.437460 -3.137121 5.463669 3.590423 0.150778 4.840129 3.621090 -3.719858 -10.933063 0.000000 -0.000000 0.000000 -0.854013 1.405440 6.642122 2.093101 -2.600178 2.051866 1.851784 -1.825428 4.181404 1.991596 -3.974527 1.864474 -1.688213 -5.916724 -2.622859 -26.702983 6.230633 1.094010 -62.708364 -6.777101 8.073944 11.036980 -32.772438 5.637823 -3.538007 -0.957001 -10.742251 24.059142 -2.787913 -1.427749 63.094111 3.118455 10.238504 -15.513890 24.603088 -5.143691 5.995171 -1.180224 -8.278556 
1.719391 0.735522 0.988780 -86.722635 3.401769 86.642086 3.517404 0.480960 6.191535 -2.830779 -12.811989 2.540146 5.359524 7.063215 -16.985905 0.000000 -0.000000 0.000000 1.439929 -2.870123 5.602424 3.713798 0.294276 4.302499 3.550994 -3.708862 -10.679490 0.000000 -0.000000 0.000000 -0.816579 1.303832 6.690253 2.024485 -2.722283 2.103015 1.826770 -1.759740 3.994152 1.857844 -4.079690 2.007174 -1.631402 -5.872466 -2.920059 -26.620979 6.135409 1.294271 -62.662707 -6.644114 7.873490 11.046139 -32.144200 5.654843 -4.199921 -0.909922 -10.886891 24.087337 -2.634579 -1.342005 63.134354 3.144663 10.225081 -15.604469 24.651841 -5.036361 6.114673 -1.168702 -8.349625 
1.719372 0.735882 0.988672 -87.006239 3.403514 86.600261 3.530590 0.506096 6.305941 -2.831106 -12.708436 2.488100 5.398595 7.131726 -17.040943 0.000000 -0.000000 0.000000 1.455048 -2.748067 5.650328 3.723040 0.368463 4.232040 3.582140 -3.693515 -10.534984 0.000000 -0.000000 0.000000 -0.820581 1.270973 6.673136 1.996076 -2.774922 2.148934 1.808066 -1.807393 3.970886 1.917697 -4.162305 1.951035 -1.589776 -5.835372 -3.175001 -26.646440 6.150850 1.321864 -62.557938 -6.392392 7.642526 11.229592 -31.142228 5.720298 -4.590353 -0.899314 -10.481379 23.944905 -2.660729 -1.183815 63.305574 3.097345 10.190052 -15.788251 24.917001 -5.030428 6.126084 -1.182991 -8.403683 
1.719610 0.736461 0.988415 -87.116068 3.510867 86.519938 3.747517 0.835644 6.354818 -2.886799 -12.836941 2.538097 5.333852 6.995109 -17.088155 0.000000 -0.000000 0.000000 1.573706 -2.937058 5.706234 3.729660 0.548285 4.240699 3.502260 -3.645244 -10.505238 0.000000 -0.000000 0.000000 -0.744515 1.218652 6.748688 1.962303 -2.865172 2.213598 1.772722 -1.859830 4.063366 2.045597 -4.361732 1.699155 -1.443470 -5.944697 -3.388814 -26.652895 6.212941 1.307808 -62.275877 -5.988899 7.304807 11.229341 -29.810379 5.988800 -4.321185 -0.569875 -9.528025 23.783457 -2.881128 -1.295682 63.332965 2.890970 10.019943 -15.684209 25.269733 -4.722407 5.882948 -1.185609 -8.081851 
1.719807 0.737137 0.988352 -87.258333 3.524180 86.503866 3.816639 0.794778 6.372998 -2.935656 -12.686343 2.544490 5.382431 7.149229 -17.075233 0.000000 -0.000000 0.000000 1.659639 -2.824281 5.644619 3.708988 0.614083 4.362251 3.385382 -3.794046 -10.489414 0.000000 -0.000000 0.000000 -0.819066 1.167273 6.735957 1.987571 -2.921234 2.286547 1.747129 -1.867146 4.083041 2.177585 -4.596047 1.636763 -1.345769 -6.163236 -3.629830 -26.701022 6.354031 1.329637 -62.042748 -5.638696 7.040296 11.263445 -28.462790 6.076788 -4.632661 -0.328716 -8.970579 23.829090 -2.988236 -1.311034 63.268420 2.885468 10.015192 -15.741231 25.072981 -4.628312 5.884696 -1.162349 -7.951618 
1.719865 0.737239 0.988043 -87.386432 3.514043 86.642440 3.793581 0.804265 6.184904 -2.936957 -12.659383 2.632790 5.356738 7.154836 -17.052112 0.000000 -0.000000 0.000000 1.664305 -2.607520 5.396413 3.758164 0.635396 4.486564 3.345562 -3.851570 -10.609121 0.000000 -0.000000 0.000000 -0.846245 1.025754 6.492904 1.976630 -2.972763 2.470542 1.683006 -1.827613 4.014067 2.187547 -4.710641 1.758122 -1.305301 -6.248471 -3.944397 -26.684846 6.490860 1.405582 -61.958706 -5.250985 6.685953 11.265902 -26.916178 5.838081 -5.012500 -0.217867 -9.084329 23.803255 -3.056568 -1.002246 63.256450 2.837782 9.960387 -16.059207 25.073132 -4.695629 5.931058 -1.222930 -8.129009 
1.719573 0.737552 0.988159 -87.413866 3.495683 86.543617 3.834108 0.978510 6.365972 -2.949009 -12.807282 2.537615 5.379761 7.265407 -17.143373 0.000000 -0.000000 0.000000 1.683742 -2.542807 5.526058 3.773198 0.692215 4.496565 3.277359 -3.977670 -10.562892 0.000000 -0.000000 0.000000 -0.952160 1.045463 6.457614 1.986165 -3.042815 2.590952 1.698029 -1.909519 4.060708 2.214335 -4.604023 1.804527 -1.369149 -6.181724 -3.936784 -26.741326 6.528288 1.617822 -61.715115 -4.880010 6.321666 11.191667 -25.340024 5.648981 -5.350673 -0.204914 -8.997198 23.873987 -3.130584 -0.906053 63.099441 2.717267 9.810619 -16.183560 24.889292 -4.899635 5.950009 -1.272771 -8.161850 
